<svg xmlns="http://www.w3.org/2000/svg" xmlns:xlink="http://www.w3.org/1999/xlink" width="150" zoomAndPan="magnify" viewBox="0 0 112.5 155.999997" height="208" preserveAspectRatio="xMidYMid meet" version="1.0"><defs><clipPath id="e9a47dacc2"><path d="M 0 0.347656 L 111.628906 0.347656 L 111.628906 155.652344 L 0 155.652344 Z M 0 0.347656 " clip-rule="nonzero"/></clipPath><clipPath id="f71821a8de"><path d="M 37.230469 3.570312 C 42.933594 1.625 49.457031 0.347656 55.84375 0.347656 C 62.230469 0.347656 68.375 1.441406 74.039062 3.386719 C 74.160156 3.449219 74.277344 3.449219 74.398438 3.507812 C 95.664062 11.292969 111.328125 31.851562 111.628906 56.269531 L 111.628906 155.617188 L 0 155.617188 L 0 56.34375 C 0.300781 31.730469 15.722656 11.171875 37.230469 3.570312 Z M 37.230469 3.570312 " clip-rule="nonzero"/></clipPath><clipPath id="e78ef5c829"><path d="M 85.957031 64.089844 L 102.152344 64.089844 L 102.152344 82.242188 L 85.957031 82.242188 Z M 85.957031 64.089844 " clip-rule="nonzero"/></clipPath><clipPath id="4fb77bff8a"><path d="M 69.765625 80.421875 L 102.152344 80.421875 L 102.152344 98.476562 L 69.765625 98.476562 Z M 69.765625 80.421875 " clip-rule="nonzero"/></clipPath><clipPath id="d6288e33a7"><path d="M 51.253906 96.65625 L 102.160156 96.65625 L 102.160156 114.808594 L 51.253906 114.808594 Z M 51.253906 96.65625 " clip-rule="nonzero"/></clipPath><clipPath id="d5791c778b"><path d="M 33.890625 112.980469 L 102.160156 112.980469 L 102.160156 131.132812 L 33.890625 131.132812 Z M 33.890625 112.980469 " clip-rule="nonzero"/></clipPath><clipPath id="ee14d41e50"><path d="M 17.722656 128.589844 L 102.152344 128.589844 L 102.152344 146.742188 L 17.722656 146.742188 Z M 17.722656 128.589844 " clip-rule="nonzero"/></clipPath></defs><g clip-path="url(#e9a47dacc2)"><g clip-path="url(#f71821a8de)"><path stroke-linecap="butt" transform="matrix(0.746681, 0, 0, 0.746681, 0.000000000000031833, 0.346232)" fill="none" stroke-linejoin="miter" d="M 49.861252 4.317879 C 57.499215 1.712601 66.23579 0.00190698 74.789262 0.00190698 C 83.342735 0.00190698 91.571856 1.466722 99.157504 4.072 C 99.31968 4.155703 99.476625 4.155703 99.6388 4.234176 C 128.118987 14.660519 149.097228 42.193807 149.500053 74.895799 L 149.500053 207.948073 L -0.000000000000042633 207.948073 L -0.000000000000042633 74.995197 C 0.402824 42.031631 21.056714 14.498343 49.861252 4.317879 Z M 49.861252 4.317879 " stroke="#86635b" stroke-width="4" stroke-opacity="1" stroke-miterlimit="4"/></g></g><g clip-path="url(#e78ef5c829)"><path fill="#86635b" d="M 102.152344 82.242188 L 85.957031 82.242188 L 85.957031 64.089844 L 102.152344 64.089844 Z M 102.152344 82.242188 " fill-opacity="1" fill-rule="nonzero"/></g><g clip-path="url(#4fb77bff8a)"><path fill="#86635b" d="M 102.152344 98.476562 L 69.78125 98.476562 L 69.78125 80.421875 L 102.152344 80.421875 Z M 102.152344 98.476562 " fill-opacity="1" fill-rule="nonzero"/></g><g clip-path="url(#d6288e33a7)"><path fill="#86635b" d="M 102.160156 114.808594 L 51.246094 114.808594 L 51.246094 96.65625 L 102.160156 96.65625 Z M 102.160156 114.808594 " fill-opacity="1" fill-rule="nonzero"/></g><g clip-path="url(#d5791c778b)"><path fill="#86635b" d="M 102.160156 131.132812 L 33.871094 131.132812 L 33.871094 112.980469 L 102.160156 112.980469 Z M 102.160156 131.132812 " fill-opacity="1" fill-rule="nonzero"/></g><g clip-path="url(#ee14d41e50)"><path fill="#86635b" d="M 102.152344 146.742188 L 17.699219 146.742188 L 17.699219 128.589844 L 102.152344 128.589844 Z M 102.152344 146.742188 " fill-opacity="1" fill-rule="nonzero"/></g></svg>